<svg width="53" height="42" viewBox="0 0 53 42" fill="none" xmlns="http://www.w3.org/2000/svg">
<path d="M9.28339 37.0234C9.28339 35.0952 7.98598 33.4668 6.18892 32.8533V17.9082L3.09446 16.5144V32.8534C1.2974 33.4668 0 35.0952 0 37.0234C0 39.4733 2.08216 41.4663 4.64169 41.4663C7.20123 41.4663 9.28339 39.4733 9.28339 37.0234Z" fill="#023AA2"/>
<path d="M43.0826 29.0083L41.5401 20.1511L26.406 26.9677L11.1688 20.1511L9.62628 29.0083C9.94924 29.2051 15.757 35.5425 26.406 35.5425C36.9778 35.5425 42.773 29.1967 43.0826 29.0083Z" fill="#023AA2"/>
<path d="M0 11.8475L26.4061 23.6951L52.709 11.8475L26.4061 0L0 11.8475ZM27.9533 13.3285H24.8589V10.3666H27.9533V13.3285Z" fill="#023AA2"/>
</svg>
