<svg width="78" height="78" viewBox="0 0 78 78" fill="none" xmlns="http://www.w3.org/2000/svg">
<path d="M70.6875 39H65.8125C65.166 39 64.546 39.2568 64.0889 39.7139C63.6318 40.171 63.375 40.791 63.375 41.4375C63.375 42.084 63.6318 42.704 64.0889 43.1611C64.546 43.6182 65.166 43.875 65.8125 43.875H70.6875C71.334 43.875 71.954 44.1318 72.4111 44.5889C72.8682 45.046 73.125 45.666 73.125 46.3125V73.125H58.5V4.875H60.9375C61.584 4.875 62.204 4.61819 62.6611 4.16107C63.1182 3.70395 63.375 3.08397 63.375 2.4375C63.375 1.79103 63.1182 1.17105 62.6611 0.713927C62.204 0.256807 61.584 0 60.9375 0L17.0625 0C16.416 0 15.796 0.256807 15.3389 0.713927C14.8818 1.17105 14.625 1.79103 14.625 2.4375C14.625 3.08397 14.8818 3.70395 15.3389 4.16107C15.796 4.61819 16.416 4.875 17.0625 4.875H19.5V73.125H4.875V46.3125C4.875 45.666 5.13181 45.046 5.58893 44.5889C6.04605 44.1318 6.66603 43.875 7.3125 43.875H12.1875C12.834 43.875 13.454 43.6182 13.9111 43.1611C14.3682 42.704 14.625 42.084 14.625 41.4375C14.625 40.791 14.3682 40.171 13.9111 39.7139C13.454 39.2568 12.834 39 12.1875 39H7.3125C5.3731 39 3.51314 39.7704 2.14178 41.1418C0.770422 42.5131 0 44.3731 0 46.3125L0 75.5625C0 76.209 0.256807 76.829 0.713927 77.2861C1.17105 77.7432 1.79103 78 2.4375 78H36.5625C37.209 78 37.829 77.7432 38.2861 77.2861C38.7432 76.829 39 76.209 39 75.5625C39 74.916 38.7432 74.296 38.2861 73.8389C37.829 73.3818 37.209 73.125 36.5625 73.125H34.125V60.9375C34.125 60.291 34.3818 59.671 34.8389 59.2139C35.296 58.7568 35.916 58.5 36.5625 58.5H41.4375C42.084 58.5 42.704 58.7568 43.1611 59.2139C43.6182 59.671 43.875 60.291 43.875 60.9375V75.5625C43.875 76.209 44.1318 76.829 44.5889 77.2861C45.046 77.7432 45.666 78 46.3125 78H75.5625C76.209 78 76.829 77.7432 77.2861 77.2861C77.7432 76.829 78 76.209 78 75.5625V46.3125C78 44.3731 77.2296 42.5131 75.8582 41.1418C74.4869 39.7704 72.6269 39 70.6875 39ZM41.4375 53.625H36.5625C34.6231 53.625 32.7631 54.3954 31.3918 55.7668C30.0204 57.1381 29.25 58.9981 29.25 60.9375V73.125H24.375V4.875H53.625V73.125H48.75V60.9375C48.75 58.9981 47.9796 57.1381 46.6082 55.7668C45.2369 54.3954 43.3769 53.625 41.4375 53.625Z" fill="#EBECF0"/>
<path d="M68.25 48.75H63.375C62.7285 48.75 62.1085 49.0068 61.6514 49.4639C61.1943 49.921 60.9375 50.541 60.9375 51.1875C60.9375 51.834 61.1943 52.454 61.6514 52.9111C62.1085 53.3682 62.7285 53.625 63.375 53.625H68.25C68.8965 53.625 69.5165 53.3682 69.9736 52.9111C70.4307 52.454 70.6875 51.834 70.6875 51.1875C70.6875 50.541 70.4307 49.921 69.9736 49.4639C69.5165 49.0068 68.8965 48.75 68.25 48.75Z" fill="#EBECF0"/>
<path d="M68.25 58.5H63.375C62.7285 58.5 62.1085 58.7568 61.6514 59.2139C61.1943 59.671 60.9375 60.291 60.9375 60.9375C60.9375 61.584 61.1943 62.204 61.6514 62.6611C62.1085 63.1182 62.7285 63.375 63.375 63.375H68.25C68.8965 63.375 69.5165 63.1182 69.9736 62.6611C70.4307 62.204 70.6875 61.584 70.6875 60.9375C70.6875 60.291 70.4307 59.671 69.9736 59.2139C69.5165 58.7568 68.8965 58.5 68.25 58.5Z" fill="#EBECF0"/>
<path d="M14.625 48.75H9.75C9.10353 48.75 8.48355 49.0068 8.02643 49.4639C7.56931 49.921 7.3125 50.541 7.3125 51.1875C7.3125 51.834 7.56931 52.454 8.02643 52.9111C8.48355 53.3682 9.10353 53.625 9.75 53.625H14.625C15.2715 53.625 15.8915 53.3682 16.3486 52.9111C16.8057 52.454 17.0625 51.834 17.0625 51.1875C17.0625 50.541 16.8057 49.921 16.3486 49.4639C15.8915 49.0068 15.2715 48.75 14.625 48.75Z" fill="#EBECF0"/>
<path d="M14.625 58.5H9.75C9.10353 58.5 8.48355 58.7568 8.02643 59.2139C7.56931 59.671 7.3125 60.291 7.3125 60.9375C7.3125 61.584 7.56931 62.204 8.02643 62.6611C8.48355 63.1182 9.10353 63.375 9.75 63.375H14.625C15.2715 63.375 15.8915 63.1182 16.3486 62.6611C16.8057 62.204 17.0625 61.584 17.0625 60.9375C17.0625 60.291 16.8057 59.671 16.3486 59.2139C15.8915 58.7568 15.2715 58.5 14.625 58.5Z" fill="#EBECF0"/>
<path d="M39 9.75C37.0716 9.75 35.1866 10.3218 33.5832 11.3932C31.9798 12.4645 30.7301 13.9873 29.9922 15.7688C29.2542 17.5504 29.0611 19.5108 29.4373 21.4021C29.8136 23.2934 30.7422 25.0307 32.1057 26.3943C33.4693 27.7579 35.2066 28.6865 37.0979 29.0627C38.9892 29.4389 40.9496 29.2458 42.7312 28.5078C44.5127 27.7699 46.0355 26.5202 47.1068 24.9168C48.1782 23.3134 48.75 21.4284 48.75 19.5C48.75 16.9141 47.7228 14.4342 45.8943 12.6057C44.0658 10.7772 41.5859 9.75 39 9.75ZM39 24.375C38.0358 24.375 37.0933 24.0891 36.2916 23.5534C35.4899 23.0177 34.8651 22.2564 34.4961 21.3656C34.1271 20.4748 34.0306 19.4946 34.2187 18.5489C34.4068 17.6033 34.8711 16.7346 35.5529 16.0529C36.2346 15.3711 37.1033 14.9068 38.0489 14.7187C38.9946 14.5306 39.9748 14.6271 40.8656 14.9961C41.7564 15.3651 42.5177 15.9899 43.0534 16.7916C43.5891 17.5933 43.875 18.5358 43.875 19.5C43.875 20.7929 43.3614 22.0329 42.4472 22.9471C41.5329 23.8614 40.2929 24.375 39 24.375Z" fill="#EBECF0"/>
</svg>
