<svg width="78" height="78" viewBox="0 0 78 78" fill="none" xmlns="http://www.w3.org/2000/svg">
<path d="M65.8125 48.75H63.375V31.6875C63.3764 27.1498 61.9706 22.7234 59.3513 19.018C56.732 15.3126 53.0282 12.5106 48.75 10.998V7.3125C48.75 5.3731 47.9796 3.51314 46.6082 2.14178C45.2369 0.770422 43.3769 0 41.4375 0L36.5625 0C34.6231 0 32.7631 0.770422 31.3918 2.14178C30.0204 3.51314 29.25 5.3731 29.25 7.3125V11.0297C24.9781 12.5423 21.279 15.3399 18.6605 19.0386C16.042 22.7373 14.6323 27.1557 14.625 31.6875V48.75H12.1875C8.95636 48.7539 5.85867 50.0391 3.57391 52.3239C1.28915 54.6087 0.0038704 57.7064 0 60.9375L0 70.6875C0 72.6269 0.770422 74.4869 2.14178 75.8582C3.51314 77.2296 5.3731 78 7.3125 78H70.6875C72.6269 78 74.4869 77.2296 75.8582 75.8582C77.2296 74.4869 78 72.6269 78 70.6875V60.9375C77.9961 57.7064 76.7109 54.6087 74.4261 52.3239C72.1413 50.0391 69.0436 48.7539 65.8125 48.75ZM4.875 70.6875V60.9375C4.875 58.9981 5.64542 57.1381 7.01678 55.7668C8.38814 54.3954 10.2481 53.625 12.1875 53.625H14.625V73.125H7.3125C6.66603 73.125 6.04605 72.8682 5.58893 72.4111C5.13181 71.954 4.875 71.334 4.875 70.6875ZM19.5 51.1875V31.6875C19.507 27.8353 20.8159 24.0985 23.2141 21.0839C25.6124 18.0692 28.9592 15.9537 32.7113 15.0808C33.1378 14.9833 33.5692 14.9029 33.9982 14.8371C34.1932 14.8078 34.3858 14.7713 34.5808 14.7469C35.2385 14.6688 35.9002 14.6281 36.5625 14.625C37.209 14.625 37.829 14.3682 38.2861 13.9111C38.7432 13.454 39 12.834 39 12.1875C39 11.541 38.7432 10.921 38.2861 10.4639C37.829 10.0068 37.209 9.75 36.5625 9.75C35.7758 9.75199 34.9899 9.79593 34.2079 9.88163C34.1811 9.88163 34.1518 9.88163 34.125 9.88163V7.3125C34.125 6.66603 34.3818 6.04605 34.8389 5.58893C35.296 5.13181 35.916 4.875 36.5625 4.875H41.4375C42.084 4.875 42.704 5.13181 43.1611 5.58893C43.6182 6.04605 43.875 6.66603 43.875 7.3125V12.7969C43.875 12.8603 43.9067 12.9139 43.9116 12.9748C43.9268 13.1405 43.9603 13.304 44.0115 13.4623C44.047 13.6029 44.0951 13.7399 44.1553 13.8718C44.2343 14.0165 44.3265 14.1536 44.4308 14.2813C44.5158 14.3948 44.6104 14.5008 44.7135 14.5982C44.8405 14.7046 44.9786 14.797 45.1254 14.8736C45.2522 14.9512 45.386 15.0165 45.5252 15.0686C45.5886 15.0906 45.6373 15.1393 45.7056 15.1564C49.3694 16.103 52.6146 18.2407 54.9307 21.2332C57.2469 24.2258 58.5025 27.9034 58.5 31.6875V48.75H26.8125C26.166 48.75 25.546 49.0068 25.0889 49.4639C24.6318 49.921 24.375 50.541 24.375 51.1875C24.375 51.834 24.6318 52.454 25.0889 52.9111C25.546 53.3682 26.166 53.625 26.8125 53.625H58.5V73.125H19.5V51.1875ZM73.125 70.6875C73.125 71.334 72.8682 71.954 72.4111 72.4111C71.954 72.8682 71.334 73.125 70.6875 73.125H63.375V53.625H65.8125C67.7519 53.625 69.6119 54.3954 70.9832 55.7668C72.3546 57.1381 73.125 58.9981 73.125 60.9375V70.6875Z" fill="#2459A8"/>
<path d="M51.1875 58.5H26.8125C26.166 58.5 25.546 58.7568 25.0889 59.2139C24.6318 59.671 24.375 60.291 24.375 60.9375C24.375 61.584 24.6318 62.204 25.0889 62.6611C25.546 63.1182 26.166 63.375 26.8125 63.375H29.25V65.8125C29.25 66.459 29.5068 67.079 29.9639 67.5361C30.421 67.9932 31.041 68.25 31.6875 68.25C32.334 68.25 32.954 67.9932 33.4111 67.5361C33.8682 67.079 34.125 66.459 34.125 65.8125V63.375H51.1875C51.834 63.375 52.454 63.1182 52.9111 62.6611C53.3682 62.204 53.625 61.584 53.625 60.9375C53.625 60.291 53.3682 59.671 52.9111 59.2139C52.454 58.7568 51.834 58.5 51.1875 58.5Z" fill="#2459A8"/>
<path d="M39 39C40.9284 39 42.8134 38.4282 44.4168 37.3568C46.0202 36.2855 47.2699 34.7627 48.0078 32.9812C48.7458 31.1996 48.9389 29.2392 48.5627 27.3479C48.1865 25.4566 47.2579 23.7193 45.8943 22.3557C44.5307 20.9922 42.7934 20.0636 40.9021 19.6873C39.0108 19.3111 37.0504 19.5042 35.2688 20.2422C33.4873 20.9801 31.9645 22.2298 30.8932 23.8332C29.8218 25.4366 29.25 27.3216 29.25 29.25C29.25 31.8359 30.2772 34.3158 32.1057 36.1443C33.9342 37.9728 36.4141 39 39 39ZM39 24.375C39.9642 24.375 40.9067 24.6609 41.7084 25.1966C42.5101 25.7323 43.1349 26.4936 43.5039 27.3844C43.8729 28.2752 43.9694 29.2554 43.7813 30.2011C43.5932 31.1467 43.1289 32.0154 42.4471 32.6972C41.7654 33.3789 40.8967 33.8432 39.9511 34.0313C39.0054 34.2194 38.0252 34.1229 37.1344 33.7539C36.2436 33.3849 35.4823 32.7601 34.9466 31.9584C34.4109 31.1567 34.125 30.2142 34.125 29.25C34.125 27.9571 34.6386 26.7171 35.5529 25.8029C36.4671 24.8886 37.7071 24.375 39 24.375Z" fill="#2459A8"/>
</svg>
