<svg width="79" height="79" viewBox="0 0 79 79" fill="none" xmlns="http://www.w3.org/2000/svg">
<path d="M77.5754 27.388L40.5442 10.1067C40.2172 9.9541 39.8608 9.875 39.4999 9.875C39.1391 9.875 38.7826 9.9541 38.4556 10.1067L1.42439 27.388C0.998906 27.5868 0.638945 27.9028 0.386755 28.299C0.134565 28.6952 0.000610352 29.155 0.000610352 29.6247C0.000610352 30.0943 0.134565 30.5542 0.386755 30.9504C0.638945 31.3466 0.998906 31.6626 1.42439 31.8614L14.8124 38.1098V56.7809C14.8124 63.8193 25.428 69.1247 39.4999 69.1247C53.5718 69.1247 64.1874 63.8193 64.1874 56.7809V38.1098L69.1249 35.804V49.3747C69.1249 50.0294 69.385 50.6574 69.848 51.1203C70.311 51.5833 70.9389 51.8434 71.5937 51.8434C72.2484 51.8434 72.8764 51.5833 73.3393 51.1203C73.8023 50.6574 74.0624 50.0294 74.0624 49.3747V33.5006L77.5754 31.8614C78.0009 31.6626 78.3609 31.3466 78.6131 30.9504C78.8653 30.5542 78.9992 30.0943 78.9992 29.6247C78.9992 29.155 78.8653 28.6952 78.6131 28.299C78.3609 27.9028 78.0009 27.5868 77.5754 27.388ZM59.2499 56.7809C59.2499 59.8027 51.5573 64.1872 39.4999 64.1872C27.4425 64.1872 19.7499 59.8027 19.7499 56.7809V40.4131L38.4556 49.1426C38.7826 49.2953 39.1391 49.3744 39.4999 49.3744C39.8608 49.3744 40.2172 49.2953 40.5442 49.1426L52.888 43.3806C53.471 43.0974 53.9193 42.5962 54.136 41.9853C54.3528 41.3744 54.3205 40.7028 54.0463 40.1155C53.7721 39.5281 53.2779 39.0722 52.6704 38.8461C52.0629 38.6201 51.3909 38.642 50.7994 38.9072L39.4999 44.1903L8.3048 29.6247L39.4999 15.0591L70.6926 29.6247L60.6744 34.3005C60.2098 34.5204 59.8264 34.8811 59.5787 35.3314C59.3309 35.7817 59.2314 36.2987 59.2944 36.8087C59.2758 36.882 59.2609 36.9562 59.2499 37.0309V56.7809Z" fill="#EBECF0"/>
</svg>
