<svg width="65" height="65" viewBox="0 0 65 65" fill="none" xmlns="http://www.w3.org/2000/svg">
<circle cx="32.5" cy="32.5" r="32.5" fill="#2459A8"/>
<path fill-rule="evenodd" clip-rule="evenodd" d="M21.5842 19.3325C23.413 17.5037 26.4376 17.7187 27.9894 19.7877L30.5653 23.2223C31.8342 24.9143 31.6661 27.2819 30.1705 28.7775L28.2714 30.6766C28.4554 31.1557 29.0613 32.2069 30.9063 34.0519C32.7514 35.897 33.8027 36.5029 34.2818 36.6869L36.1809 34.7879C37.6764 33.2923 40.0441 33.124 41.736 34.3931L45.1706 36.969C47.2396 38.5208 47.4547 41.5454 45.6258 43.3742C45.0312 43.9688 44.9306 44.0693 43.9384 45.0616C42.9272 46.0728 40.7801 47.018 38.6061 47.1125C35.2042 47.2604 30.5835 45.7499 24.8959 40.0624C19.2085 34.3749 17.6979 29.7541 17.8459 26.3522C17.9281 24.4599 18.5298 22.3814 19.9047 21.0279C20.889 20.0277 21.017 19.8997 21.5842 19.3325ZM20.6765 26.4753C20.574 28.8334 21.5678 32.7274 26.8994 38.059C32.2311 43.3906 36.1249 44.3844 38.4831 44.2818C40.6843 44.1861 41.8652 43.1224 41.9349 43.0581L43.6223 41.3707C44.2319 40.7611 44.1604 39.7529 43.4706 39.2357L40.036 36.6597C39.4721 36.2367 38.6828 36.2928 38.1843 36.7914C37.4333 37.5425 36.9205 38.0627 35.9169 39.0626C33.8322 41.1395 30.2634 37.416 28.9029 36.0555C27.6526 34.8052 23.8422 31.1231 25.8937 29.0473C25.8978 29.0432 26.4504 28.4906 28.167 26.774C28.6655 26.2755 28.7216 25.4863 28.2986 24.9223L25.7227 21.4877C25.2055 20.7981 24.1973 20.7264 23.5877 21.336C23.0266 21.8971 22.3916 22.5321 21.902 23.0251C20.8942 24.0398 20.7305 25.2349 20.6765 26.4753Z" fill="white"/>
</svg>
