<svg width="105" height="89" viewBox="0 0 105 89" fill="none" xmlns="http://www.w3.org/2000/svg">
<path d="M36.6301 34.5178C36.6301 32.7253 35.424 31.2114 33.7534 30.6412V16.7478L30.8767 15.4521V30.6413C29.2061 31.2114 28 32.7253 28 34.5178C28 36.7953 29.9356 38.648 32.3151 38.648C34.6945 38.648 36.6301 36.7953 36.6301 34.5178Z" fill="#2459A8"/>
<path d="M68.051 27.0669L66.6171 18.833L52.5479 25.1698L38.3829 18.833L36.949 27.0669C37.2492 27.2498 42.6483 33.1412 52.5479 33.1412C62.3758 33.1412 67.7633 27.242 68.051 27.0669Z" fill="#2459A8"/>
<path d="M28 11.1135L52.5479 22.1273L77 11.1135L52.5479 0.0996094L28 11.1135ZM53.9863 12.4902H51.1096V9.73673H53.9863V12.4902Z" fill="#2459A8"/>
<path d="M0.918933 88.5318V84.1922H10.3935C10.8159 84.1922 11.1962 84.0889 11.5342 83.8822C11.8722 83.6756 12.1363 83.407 12.3264 83.0763C12.5376 82.7457 12.6433 82.384 12.6433 81.9914C12.6433 81.5781 12.5376 81.2061 12.3264 80.8755C12.1363 80.5449 11.8722 80.2762 11.5342 80.0696C11.1962 79.8629 10.8159 79.7596 10.3935 79.7596H6.97122C5.6826 79.7596 4.51017 79.5116 3.45392 79.0157C2.39768 78.5197 1.55268 77.7964 0.918933 76.8459C0.306311 75.8746 0 74.7174 0 73.3742C0 72.0516 0.295749 70.9047 0.887246 69.9335C1.47874 68.9622 2.28149 68.2079 3.29548 67.6707C4.30948 67.1127 5.4291 66.8337 6.65434 66.8337H16.4457V71.1734H7.2564C6.87616 71.1734 6.52759 71.2663 6.21072 71.4523C5.89385 71.6383 5.65091 71.8863 5.48191 72.1963C5.31291 72.5062 5.22841 72.8472 5.22841 73.2192C5.22841 73.5911 5.31291 73.9321 5.48191 74.2421C5.65091 74.5314 5.89385 74.769 6.21072 74.955C6.52759 75.141 6.87616 75.234 7.2564 75.234H10.8371C12.2524 75.234 13.4777 75.5026 14.5128 76.0399C15.5691 76.5565 16.3824 77.2902 16.9527 78.2407C17.5442 79.1707 17.84 80.2659 17.84 81.5265C17.84 83.0143 17.5337 84.2852 16.921 85.3391C16.3295 86.3724 15.5268 87.168 14.5128 87.7259C13.4988 88.2632 12.3792 88.5318 11.1539 88.5318H0.918933Z" fill="#EBECF0"/>
<path d="M27.215 88.9038C25.7785 88.9038 24.511 88.5422 23.4125 87.8189C22.314 87.0956 21.4584 86.1244 20.8458 84.9052C20.2332 83.6653 19.9269 82.2704 19.9269 80.7205C19.9269 79.1087 20.286 77.6725 21.0043 76.4119C21.7225 75.1307 22.7365 74.1181 24.0462 73.3742C25.3771 72.6302 26.9404 72.2583 28.736 72.2583C30.5527 72.2583 32.0948 72.6302 33.3623 73.3742C34.6509 74.0974 35.6333 75.0997 36.3092 76.3809C37.0064 77.6415 37.3549 79.057 37.3549 80.6275V88.5318H32.5385V85.9901H32.4117C32.116 86.548 31.7357 87.0543 31.271 87.5089C30.8062 87.9429 30.2358 88.2839 29.5598 88.5318C28.905 88.7798 28.1233 88.9038 27.215 88.9038ZM28.6726 84.7502C29.412 84.7502 30.0563 84.5745 30.6055 84.2232C31.1759 83.8512 31.609 83.345 31.9047 82.7043C32.2005 82.0637 32.3483 81.3508 32.3483 80.5655C32.3483 79.8009 32.2005 79.1087 31.9047 78.4887C31.609 77.8688 31.1759 77.3831 30.6055 77.0318C30.0563 76.6599 29.412 76.4739 28.6726 76.4739C27.9121 76.4739 27.2467 76.6599 26.6763 77.0318C26.1059 77.3831 25.6729 77.8688 25.3771 78.4887C25.0814 79.1087 24.9335 79.8009 24.9335 80.5655C24.9335 81.3508 25.0814 82.0637 25.3771 82.7043C25.6729 83.345 26.1059 83.8512 26.6763 84.2232C27.2467 84.5745 27.9121 84.7502 28.6726 84.7502Z" fill="#EBECF0"/>
<path d="M40.9871 88.5318V65.9038H45.8986V78.6437H48.0534L51.7608 72.6302H57.2427L52.8698 79.2636C54.1373 79.7803 55.1196 80.5759 55.8168 81.6504C56.535 82.7043 56.8941 83.9442 56.8941 85.3701V88.5318H51.9509V85.3701C51.9509 84.7915 51.803 84.2749 51.5073 83.8202C51.2327 83.345 50.863 82.973 50.3982 82.7043C49.9335 82.4357 49.4054 82.3014 48.8139 82.3014H45.8986V88.5318H40.9871Z" fill="#EBECF0"/>
<path d="M68.0976 88.9038C66.4287 88.9038 64.9289 88.5422 63.598 87.8189C62.2671 87.0956 61.2109 86.1037 60.4293 84.8432C59.6688 83.5826 59.2885 82.1671 59.2885 80.5965C59.2885 79.0053 59.6688 77.5898 60.4293 76.3499C61.2109 75.0893 62.2671 74.0974 63.598 73.3742C64.9289 72.6302 66.4287 72.2583 68.0976 72.2583C69.7665 72.2583 71.2558 72.6302 72.5655 73.3742C73.8964 74.0974 74.9421 75.0893 75.7026 76.3499C76.4842 77.5898 76.875 79.0053 76.875 80.5965C76.875 82.1671 76.4842 83.5826 75.7026 84.8432C74.9421 86.1037 73.8964 87.0956 72.5655 87.8189C71.2346 88.5422 69.7453 88.9038 68.0976 88.9038ZM68.0976 84.7192C68.8792 84.7192 69.5552 84.5332 70.1256 84.1612C70.696 83.7893 71.1396 83.2933 71.4565 82.6734C71.7733 82.0534 71.9318 81.3508 71.9318 80.5655C71.9318 79.8009 71.7733 79.1087 71.4565 78.4887C71.1396 77.8688 70.696 77.3728 70.1256 77.0008C69.5552 76.6289 68.8792 76.4429 68.0976 76.4429C67.316 76.4429 66.6294 76.6289 66.0379 77.0008C65.4676 77.3728 65.0239 77.8688 64.7071 78.4887C64.3902 79.1087 64.2317 79.8009 64.2317 80.5655C64.2317 81.3508 64.3902 82.0534 64.7071 82.6734C65.0239 83.2933 65.4676 83.7893 66.0379 84.1612C66.6294 84.5332 67.316 84.7192 68.0976 84.7192Z" fill="#EBECF0"/>
<path d="M79.7917 88.5318V65.9038H84.7033V88.5318H79.7917Z" fill="#EBECF0"/>
<path d="M94.86 88.9038C93.4235 88.9038 92.1561 88.5422 91.0576 87.8189C89.9591 87.0956 89.1035 86.1244 88.4909 84.9052C87.8783 83.6653 87.5719 82.2704 87.5719 80.7205C87.5719 79.1087 87.9311 77.6725 88.6493 76.4119C89.3676 75.1307 90.3816 74.1181 91.6913 73.3742C93.0222 72.6302 94.5854 72.2583 96.381 72.2583C98.1978 72.2583 99.7399 72.6302 101.007 73.3742C102.296 74.0974 103.278 75.0997 103.954 76.3809C104.651 77.6415 105 79.057 105 80.6275V88.5318H100.184V85.9901H100.057C99.761 86.548 99.3808 87.0543 98.916 87.5089C98.4513 87.9429 97.8809 88.2839 97.2049 88.5318C96.55 88.7798 95.7684 88.9038 94.86 88.9038ZM96.3177 84.7502C97.057 84.7502 97.7013 84.5745 98.2506 84.2232C98.821 83.8512 99.254 83.345 99.5498 82.7043C99.8455 82.0637 99.9934 81.3508 99.9934 80.5655C99.9934 79.8009 99.8455 79.1087 99.5498 78.4887C99.254 77.8688 98.821 77.3831 98.2506 77.0318C97.7013 76.6599 97.057 76.4739 96.3177 76.4739C95.5572 76.4739 94.8917 76.6599 94.3214 77.0318C93.751 77.3831 93.3179 77.8688 93.0222 78.4887C92.7264 79.1087 92.5786 79.8009 92.5786 80.5655C92.5786 81.3508 92.7264 82.0637 93.0222 82.7043C93.3179 83.345 93.751 83.8512 94.3214 84.2232C94.8917 84.5745 95.5572 84.7502 96.3177 84.7502Z" fill="#EBECF0"/>
</svg>
