<svg width="30" height="38" viewBox="0 0 30 38" fill="none" xmlns="http://www.w3.org/2000/svg">
<path d="M25.0824 20.0809C25.0664 16.9674 26.3895 14.6174 29.0675 12.8867C27.5691 10.6046 25.3055 9.34902 22.3167 9.10299C19.4872 8.86545 16.3948 10.8591 15.263 10.8591C14.0675 10.8591 11.3257 9.18783 9.17375 9.18783C4.72636 9.26418 0 12.9631 0 20.4881C0 22.7108 0.382572 25.0071 1.14772 27.3769C2.16791 30.4904 5.85016 38.1257 9.69182 37.9984C11.7003 37.9475 13.119 36.4798 15.7333 36.4798C18.2678 36.4798 19.5829 37.9984 21.8225 37.9984C25.6961 37.939 29.0276 30.9994 30 27.8774C24.8034 25.2729 25.0824 20.2421 25.0824 20.0809ZM20.5712 6.15067C22.7471 3.40196 22.5478 0.899271 22.4841 0C20.5632 0.118772 18.3395 1.39132 17.0723 2.96081C15.6775 4.64058 14.8565 6.71908 15.0319 9.06058C17.1121 9.23025 19.009 8.09344 20.5712 6.15067Z" fill="#EBECF0"/>
</svg>
