<svg width="38" height="38" viewBox="0 0 38 38" fill="none" xmlns="http://www.w3.org/2000/svg">
<g clip-path="url(#clip0)">
<path d="M36.8877 3.23955C36.1277 2.43205 35.0495 1.96652 33.938 1.96652H30.3992C30.4135 1.33 30.423 0.674555 30.423 0H7.59921C7.59921 0.674462 7.60867 1.33 7.62296 1.96652H4.06046C2.94894 1.96652 1.87073 2.43205 1.11073 3.23955C0.341172 4.05187 -0.0577537 5.1633 0.00867207 6.2891C0.645191 16.9006 6.12198 23.5601 14.8049 24.5481L13.1234 30.4001C11.1237 30.4001 9.50394 32.0198 9.50394 34.0195V38H28.523V34.0195C28.523 32.0198 26.9032 30.4001 24.9035 30.4001L23.222 24.5481C31.886 23.5506 37.358 16.8959 37.9897 6.2891C38.0562 5.16812 37.6572 4.05661 36.8877 3.23955ZM3.80394 6.06107C3.79921 5.9566 3.84198 5.88535 3.87992 5.84732C3.95117 5.77134 4.03671 5.77134 4.06046 5.77134H7.8035C8.36876 13.2431 10.017 17.4801 11.6178 19.8741C5.5235 17.3186 4.06992 10.4928 3.80394 6.06107ZM26.4045 19.8598C28.0052 17.4611 29.6488 13.2288 30.2139 5.7666H33.9427C33.9712 5.7666 34.052 5.7666 34.1232 5.84259C34.1613 5.88062 34.2039 5.95187 34.1992 6.05634C33.9285 10.4881 32.4797 17.2948 26.4045 19.8598Z" fill="#023AA2"/>
</g>
<defs>
<clipPath id="clip0">
<rect width="38" height="38" fill="white"/>
</clipPath>
</defs>
</svg>
