<svg class='phone' width="24" height="24" viewBox="0 0 24 24" fill="none" xmlns="http://www.w3.org/2000/svg">
<path d="M12.0458 0V1.40625C17.8617 1.40625 22.5927 6.13725 22.5927 11.9531H23.9989C23.9989 5.36203 18.6369 0 12.0458 0Z" fill="#EBECF0"/>
<path d="M12.0458 4.21875V5.625C15.5353 5.625 18.3739 8.46361 18.3739 11.9531H19.7801C19.7801 7.68839 16.3106 4.21875 12.0458 4.21875Z" fill="#EBECF0"/>
<path d="M12.0458 9.84375C13.2089 9.84375 14.1552 10.79 14.1552 11.9531H15.5614C15.5614 10.0147 13.9842 8.4375 12.0458 8.4375V9.84375Z" fill="#EBECF0"/>
<path d="M16.2177 24H16.9208V18.5755L12.0051 16.8939L9.92318 18.2823C8.11179 17.4583 6.54813 15.8477 5.72416 14.0364L7.11185 11.9545L5.43096 7.03125H0.164408C0.121237 7.45875 0.0213928 8.08927 0.00362712 9.05686C-0.0625604 12.6519 1.20461 16.243 3.58943 18.9195C5.65413 21.237 9.55995 24 16.2177 24Z" fill="#EBECF0"/>
</svg>
