<svg width="24" height="24" viewBox="0 0 24 24" fill="none" xmlns="http://www.w3.org/2000/svg">
<path d="M18.55 11.1701L6.55 3.17011C6.39798 3.08234 6.22554 3.03613 6.05 3.03613C5.87446 3.03613 5.70202 3.08234 5.55 3.17011C5.39381 3.24836 5.26085 3.36616 5.16435 3.51179C5.06786 3.65741 5.01119 3.82577 5 4.00011V20.0001C5.00048 20.181 5.05003 20.3584 5.14336 20.5134C5.2367 20.6683 5.37032 20.7951 5.53 20.8801C5.68637 20.9604 5.86115 20.9981 6.03671 20.9893C6.21227 20.9805 6.38242 20.9256 6.53 20.8301L18.53 12.8301C18.6661 12.7386 18.7777 12.6151 18.8548 12.4703C18.9319 12.3256 18.9722 12.1641 18.9722 12.0001C18.9722 11.8361 18.9319 11.6746 18.8548 11.5299C18.7777 11.3851 18.6661 11.2616 18.53 11.1701H18.55ZM7 18.1301V5.87011L16.2 12.0001L7 18.1301Z" fill="#EBECF0"/>
</svg>
