<svg width="105" height="24" viewBox="0 0 105 24" fill="none" xmlns="http://www.w3.org/2000/svg">
<path d="M0.918933 23.5318V19.1922H10.3935C10.8159 19.1922 11.1962 19.0889 11.5342 18.8822C11.8722 18.6756 12.1363 18.407 12.3264 18.0763C12.5376 17.7457 12.6433 17.384 12.6433 16.9914C12.6433 16.5781 12.5376 16.2061 12.3264 15.8755C12.1363 15.5449 11.8722 15.2762 11.5342 15.0696C11.1962 14.8629 10.8159 14.7596 10.3935 14.7596H6.97122C5.6826 14.7596 4.51017 14.5116 3.45392 14.0157C2.39768 13.5197 1.55268 12.7964 0.918933 11.8459C0.306311 10.8746 0 9.71738 0 8.37416C0 7.05161 0.295749 5.90471 0.887246 4.93346C1.47874 3.96221 2.28149 3.20794 3.29548 2.67065C4.30948 2.1127 5.4291 1.83373 6.65434 1.83373H16.4457V6.17335H7.2564C6.87616 6.17335 6.52759 6.26634 6.21072 6.45233C5.89385 6.63831 5.65091 6.88629 5.48191 7.19626C5.31291 7.50623 5.22841 7.8472 5.22841 8.21917C5.22841 8.59114 5.31291 8.93211 5.48191 9.24208C5.65091 9.53139 5.89385 9.76904 6.21072 9.95502C6.52759 10.141 6.87616 10.234 7.2564 10.234H10.8371C12.2524 10.234 13.4777 10.5026 14.5128 11.0399C15.5691 11.5565 16.3824 12.2902 16.9527 13.2407C17.5442 14.1707 17.84 15.2659 17.84 16.5265C17.84 18.0143 17.5337 19.2852 16.921 20.3391C16.3295 21.3724 15.5268 22.168 14.5128 22.7259C13.4988 23.2632 12.3792 23.5318 11.1539 23.5318H0.918933Z" fill="#EBECF0"/>
<path d="M27.215 23.9038C25.7785 23.9038 24.511 23.5422 23.4125 22.8189C22.314 22.0956 21.4584 21.1244 20.8458 19.9052C20.2332 18.6653 19.9269 17.2704 19.9269 15.7205C19.9269 14.1087 20.286 12.6725 21.0043 11.4119C21.7225 10.1307 22.7365 9.11809 24.0462 8.37416C25.3771 7.63022 26.9404 7.25826 28.736 7.25826C30.5527 7.25826 32.0948 7.63022 33.3623 8.37416C34.6509 9.09743 35.6333 10.0997 36.3092 11.3809C37.0064 12.6415 37.3549 14.057 37.3549 15.6275V23.5318H32.5385V20.9901H32.4117C32.116 21.548 31.7357 22.0543 31.271 22.5089C30.8062 22.9429 30.2358 23.2839 29.5598 23.5318C28.905 23.7798 28.1233 23.9038 27.215 23.9038ZM28.6726 19.7502C29.412 19.7502 30.0563 19.5745 30.6055 19.2232C31.1759 18.8512 31.609 18.345 31.9047 17.7043C32.2005 17.0637 32.3483 16.3508 32.3483 15.5655C32.3483 14.8009 32.2005 14.1087 31.9047 13.4887C31.609 12.8688 31.1759 12.3831 30.6055 12.0318C30.0563 11.6599 29.412 11.4739 28.6726 11.4739C27.9121 11.4739 27.2467 11.6599 26.6763 12.0318C26.1059 12.3831 25.6729 12.8688 25.3771 13.4887C25.0814 14.1087 24.9335 14.8009 24.9335 15.5655C24.9335 16.3508 25.0814 17.0637 25.3771 17.7043C25.6729 18.345 26.1059 18.8512 26.6763 19.2232C27.2467 19.5745 27.9121 19.7502 28.6726 19.7502Z" fill="#EBECF0"/>
<path d="M40.9871 23.5318V0.903809H45.8986V13.6437H48.0534L51.7608 7.63022H57.2427L52.8698 14.2636C54.1373 14.7803 55.1196 15.5759 55.8168 16.6504C56.535 17.7043 56.8941 18.9442 56.8941 20.3701V23.5318H51.9509V20.3701C51.9509 19.7915 51.803 19.2749 51.5073 18.8202C51.2327 18.345 50.863 17.973 50.3982 17.7043C49.9335 17.4357 49.4054 17.3014 48.8139 17.3014H45.8986V23.5318H40.9871Z" fill="#EBECF0"/>
<path d="M68.0976 23.9038C66.4287 23.9038 64.9289 23.5422 63.598 22.8189C62.2671 22.0956 61.2109 21.1037 60.4293 19.8432C59.6688 18.5826 59.2885 17.1671 59.2885 15.5965C59.2885 14.0053 59.6688 12.5898 60.4293 11.3499C61.2109 10.0893 62.2671 9.09743 63.598 8.37416C64.9289 7.63022 66.4287 7.25826 68.0976 7.25826C69.7665 7.25826 71.2558 7.63022 72.5655 8.37416C73.8964 9.09743 74.9421 10.0893 75.7026 11.3499C76.4842 12.5898 76.875 14.0053 76.875 15.5965C76.875 17.1671 76.4842 18.5826 75.7026 19.8432C74.9421 21.1037 73.8964 22.0956 72.5655 22.8189C71.2346 23.5422 69.7453 23.9038 68.0976 23.9038ZM68.0976 19.7192C68.8792 19.7192 69.5552 19.5332 70.1256 19.1612C70.696 18.7893 71.1396 18.2933 71.4565 17.6734C71.7733 17.0534 71.9318 16.3508 71.9318 15.5655C71.9318 14.8009 71.7733 14.1087 71.4565 13.4887C71.1396 12.8688 70.696 12.3728 70.1256 12.0008C69.5552 11.6289 68.8792 11.4429 68.0976 11.4429C67.316 11.4429 66.6294 11.6289 66.0379 12.0008C65.4676 12.3728 65.0239 12.8688 64.7071 13.4887C64.3902 14.1087 64.2317 14.8009 64.2317 15.5655C64.2317 16.3508 64.3902 17.0534 64.7071 17.6734C65.0239 18.2933 65.4676 18.7893 66.0379 19.1612C66.6294 19.5332 67.316 19.7192 68.0976 19.7192Z" fill="#EBECF0"/>
<path d="M79.7917 23.5318V0.903809H84.7033V23.5318H79.7917Z" fill="#EBECF0"/>
<path d="M94.86 23.9038C93.4235 23.9038 92.1561 23.5422 91.0576 22.8189C89.9591 22.0956 89.1035 21.1244 88.4909 19.9052C87.8783 18.6653 87.5719 17.2704 87.5719 15.7205C87.5719 14.1087 87.9311 12.6725 88.6493 11.4119C89.3676 10.1307 90.3816 9.11809 91.6913 8.37416C93.0222 7.63022 94.5854 7.25826 96.381 7.25826C98.1978 7.25826 99.7399 7.63022 101.007 8.37416C102.296 9.09743 103.278 10.0997 103.954 11.3809C104.651 12.6415 105 14.057 105 15.6275V23.5318H100.184V20.9901H100.057C99.761 21.548 99.3808 22.0543 98.916 22.5089C98.4513 22.9429 97.8809 23.2839 97.2049 23.5318C96.55 23.7798 95.7684 23.9038 94.86 23.9038ZM96.3177 19.7502C97.057 19.7502 97.7013 19.5745 98.2506 19.2232C98.821 18.8512 99.254 18.345 99.5498 17.7043C99.8455 17.0637 99.9934 16.3508 99.9934 15.5655C99.9934 14.8009 99.8455 14.1087 99.5498 13.4887C99.254 12.8688 98.821 12.3831 98.2506 12.0318C97.7013 11.6599 97.057 11.4739 96.3177 11.4739C95.5572 11.4739 94.8917 11.6599 94.3214 12.0318C93.751 12.3831 93.3179 12.8688 93.0222 13.4887C92.7264 14.1087 92.5786 14.8009 92.5786 15.5655C92.5786 16.3508 92.7264 17.0637 93.0222 17.7043C93.3179 18.345 93.751 18.8512 94.3214 19.2232C94.8917 19.5745 95.5572 19.7502 96.3177 19.7502Z" fill="#EBECF0"/>
</svg>
