<svg width="24" height="24" viewBox="0 0 24 24" fill="none" xmlns="http://www.w3.org/2000/svg">
<path d="M12 1C9.82441 1 7.69767 1.64514 5.88873 2.85383C4.07979 4.06253 2.66989 5.78049 1.83733 7.79048C1.00477 9.80047 0.786929 12.0122 1.21137 14.146C1.6358 16.2798 2.68345 18.2398 4.22183 19.7782C5.76021 21.3166 7.72022 22.3642 9.85401 22.7886C11.9878 23.2131 14.1995 22.9952 16.2095 22.1627C18.2195 21.3301 19.9375 19.9202 21.1462 18.1113C22.3549 16.3023 23 14.1756 23 12C22.9966 9.08367 21.8365 6.28778 19.7744 4.22563C17.7122 2.16347 14.9163 1.00344 12 1ZM12 21C10.22 21 8.47992 20.4722 6.99987 19.4832C5.51983 18.4943 4.36628 17.0887 3.68509 15.4442C3.0039 13.7996 2.82567 11.99 3.17294 10.2442C3.5202 8.49836 4.37737 6.89471 5.63604 5.63604C6.89472 4.37737 8.49836 3.5202 10.2442 3.17293C11.99 2.82567 13.7996 3.0039 15.4442 3.68508C17.0887 4.36627 18.4943 5.51983 19.4832 6.99987C20.4722 8.47991 21 10.22 21 12C20.9974 14.3861 20.0483 16.6738 18.361 18.361C16.6738 20.0483 14.3861 20.9974 12 21Z" fill="#023AA2"/>
<path d="M16.3241 8.76307L11.0301 13.6161L8.70708 11.2931C8.61483 11.1976 8.50449 11.1214 8.38249 11.069C8.26048 11.0166 8.12926 10.989 7.99648 10.9878C7.8637 10.9867 7.73202 11.012 7.60913 11.0623C7.48623 11.1125 7.37458 11.1868 7.28069 11.2807C7.18679 11.3746 7.11254 11.4862 7.06226 11.6091C7.01198 11.732 6.98668 11.8637 6.98783 11.9965C6.98898 12.1293 7.01657 12.2605 7.06898 12.3825C7.12139 12.5045 7.19757 12.6148 7.29308 12.7071L10.2931 15.7071C10.4753 15.8893 10.7209 15.9942 10.9786 15.9998C11.2362 16.0054 11.4861 15.9113 11.6761 15.7371L17.6761 10.2371C17.8715 10.0578 17.9878 9.8082 17.9992 9.54321C18.0107 9.27822 17.9164 9.01954 17.7371 8.82407C17.5578 8.62861 17.3082 8.51237 17.0432 8.50093C16.7782 8.48949 16.5195 8.58379 16.3241 8.76307Z" fill="#023AA2"/>
</svg>
