<svg width="79" height="79" fill="none" xmlns="http://www.w3.org/2000/svg"><path d="M77.575 27.388l-37.03-17.281a2.47 2.47 0 00-2.09 0L1.426 27.388a2.469 2.469 0 000 4.473l13.387 6.249v18.67c0 7.04 10.616 12.345 24.688 12.345s24.687-5.306 24.687-12.344V38.11l4.938-2.306v13.57a2.468 2.468 0 104.937 0V33.502l3.513-1.64a2.469 2.469 0 000-4.473zM59.25 56.781c0 3.022-7.693 7.406-19.75 7.406-12.058 0-19.75-4.384-19.75-7.406V40.413l18.706 8.73a2.468 2.468 0 002.088 0l12.344-5.762a2.469 2.469 0 00-2.089-4.474L39.5 44.19 8.306 29.625 39.5 15.059l31.193 14.566L60.674 34.3a2.444 2.444 0 00-1.38 2.509 2.217 2.217 0 00-.044.222v19.75z" fill="#EBECF0"/></svg>