<svg width="32" height="26" viewBox="0 0 32 26" fill="none" xmlns="http://www.w3.org/2000/svg">
<path fill-rule="evenodd" clip-rule="evenodd" d="M27.3334 3.08333H4.66675C3.88435 3.08333 3.25008 3.7176 3.25008 4.5V21.5C3.25008 22.2824 3.88435 22.9167 4.66675 22.9167H27.3334C28.1158 22.9167 28.7501 22.2824 28.7501 21.5V4.5C28.7501 3.7176 28.1158 3.08333 27.3334 3.08333ZM4.66675 0.25C2.31954 0.25 0.416748 2.1528 0.416748 4.5V21.5C0.416748 23.8473 2.31954 25.75 4.66675 25.75H27.3334C29.6807 25.75 31.5834 23.8473 31.5834 21.5V4.5C31.5834 2.1528 29.6807 0.25 27.3334 0.25H4.66675Z" fill="white"/>
<path fill-rule="evenodd" clip-rule="evenodd" d="M6.41164 6.42628C6.91253 5.82522 7.80582 5.74401 8.40689 6.24489L15.093 11.8167C15.6185 12.2544 16.3815 12.2544 16.9069 11.8167L23.593 6.24489C24.1941 5.74401 25.0875 5.82522 25.5882 6.42628C26.0892 7.02734 26.008 7.92063 25.4069 8.42152L18.7207 13.9932C17.1446 15.3068 14.8553 15.3068 13.2791 13.9932L6.59303 8.42152C5.99196 7.92063 5.91076 7.02734 6.41164 6.42628Z" fill="white"/>
</svg>
