<svg width="34" height="34" viewBox="0 0 34 34" fill="none" xmlns="http://www.w3.org/2000/svg">
<path fill-rule="evenodd" clip-rule="evenodd" d="M6.58419 3.33254C8.41301 1.50372 11.4376 1.71867 12.9894 3.78774L15.5653 7.22225C16.8342 8.91426 16.6661 11.2819 15.1705 12.7775L13.2714 14.6766C13.4554 15.1557 14.0613 16.2069 15.9063 18.0519C17.7514 19.897 18.8027 20.5029 19.2818 20.6869L21.1809 18.7879C22.6764 17.2923 25.0441 17.124 26.736 18.3931L30.1706 20.969C32.2396 22.5208 32.4547 25.5454 30.6258 27.3742C30.0312 27.9688 29.9306 28.0693 28.9384 29.0616C27.9272 30.0728 25.7801 31.018 23.6061 31.1125C20.2042 31.2604 15.5835 29.7499 9.89595 24.0624C4.2085 18.3749 2.69795 13.7541 2.84586 10.3522C2.92814 8.45985 3.52979 6.38142 4.9047 5.02785C5.889 4.02773 6.01701 3.89972 6.58419 3.33254ZM5.67652 10.4753C5.57399 12.8334 6.5678 16.7274 11.8994 22.059C17.2311 27.3906 21.1249 28.3844 23.4831 28.2818C25.6843 28.1861 26.8652 27.1224 26.9349 27.0581L28.6223 25.3707C29.2319 24.7611 29.1604 23.7529 28.4706 23.2357L25.036 20.6597C24.4721 20.2367 23.6828 20.2928 23.1843 20.7914C22.4333 21.5425 21.9205 22.0627 20.9169 23.0626C18.8322 25.1395 15.2634 21.416 13.9029 20.0555C12.6526 18.8052 8.84222 15.1231 10.8937 13.0473C10.8978 13.0432 11.4504 12.4906 13.167 10.774C13.6655 10.2755 13.7216 9.48626 13.2986 8.92225L10.7227 5.48774C10.2055 4.79805 9.19726 4.7264 8.58767 5.336C8.02659 5.89707 7.39161 6.53205 6.90196 7.0251C5.89419 8.03984 5.73045 9.23488 5.67652 10.4753Z" fill="white"/>
</svg>
