<svg width="34" height="34" viewBox="0 0 34 34" fill="none" xmlns="http://www.w3.org/2000/svg">
<path fill-rule="evenodd" clip-rule="evenodd" d="M23.5755 23.0131C25.5599 20.2586 26.9167 17.2311 26.9167 14.1667C26.9167 8.68993 22.4768 4.25008 17 4.25008C11.5232 4.25008 7.08333 8.68993 7.08333 14.1667C7.08333 17.2311 8.44006 20.2586 10.4245 23.0131C12.394 25.7469 14.8156 27.9797 16.5423 29.3938C16.8255 29.6257 17.1745 29.6257 17.4577 29.3938C19.1844 27.9797 21.606 25.7469 23.5755 23.0131ZM19.2531 31.5857C22.914 28.5871 29.75 21.9467 29.75 14.1667C29.75 7.12512 24.0417 1.41675 17 1.41675C9.95837 1.41675 4.25 7.12512 4.25 14.1667C4.25 21.9467 11.0859 28.5871 14.7469 31.5857C16.0744 32.6728 17.9256 32.6728 19.2531 31.5857Z" fill="white"/>
<path fill-rule="evenodd" clip-rule="evenodd" d="M17 11.3333C15.4352 11.3333 14.1667 12.6019 14.1667 14.1667C14.1667 15.7315 15.4352 17 17 17C18.5649 17 19.8334 15.7315 19.8334 14.1667C19.8334 12.6019 18.5649 11.3333 17 11.3333ZM11.3334 14.1667C11.3334 11.037 13.8704 8.5 17 8.5C20.1296 8.5 22.6667 11.037 22.6667 14.1667C22.6667 17.2962 20.1296 19.8333 17 19.8333C13.8704 19.8333 11.3334 17.2962 11.3334 14.1667Z" fill="white"/>
</svg>
