<svg class="phone" width="24" height="24" fill="none" xmlns="http://www.w3.org/2000/svg"><path d="M12.046 0v1.406c5.816 0 10.547 4.731 10.547 10.547h1.406C23.999 5.362 18.637 0 12.046 0z" fill="#EBECF0"/><path d="M12.046 4.219v1.406a6.335 6.335 0 016.328 6.328h1.406c0-4.265-3.47-7.734-7.734-7.734zm0 5.625c1.163 0 2.11.946 2.11 2.11h1.405a3.52 3.52 0 00-3.515-3.517v1.407zM16.218 24h.703v-5.424l-4.916-1.682-2.082 1.388c-1.811-.824-3.375-2.434-4.199-4.246l1.388-2.082L5.43 7.031H.164C.121 7.46.021 8.09.004 9.057c-.067 3.595 1.2 7.186 3.585 9.862C5.654 21.238 9.56 24 16.218 24z" fill="#EBECF0"/></svg>