<svg width="105" height="24" fill="none" xmlns="http://www.w3.org/2000/svg"><path d="M.919 23.532v-4.34h9.475c.422 0 .802-.103 1.14-.31a2.24 2.24 0 00.792-.806c.212-.33.317-.692.317-1.085 0-.413-.105-.785-.317-1.115a2.24 2.24 0 00-.792-.806 2.143 2.143 0 00-1.14-.31H6.97c-1.288 0-2.46-.248-3.517-.744a6.102 6.102 0 01-2.535-2.17C.306 10.875 0 9.717 0 8.374c0-1.322.296-2.47.887-3.44A6.124 6.124 0 013.295 2.67c1.014-.558 2.134-.837 3.36-.837h9.79v4.34H7.257c-.38 0-.728.092-1.045.278-.317.186-.56.434-.73.744-.168.31-.253.651-.253 1.023 0 .372.085.713.254 1.023.169.29.412.527.729.713.317.186.665.279 1.045.279h3.581c1.415 0 2.64.269 3.676.806 1.056.517 1.87 1.25 2.44 2.2.591.93.887 2.026.887 3.286 0 1.488-.306 2.76-.919 3.813a6.153 6.153 0 01-2.408 2.387c-1.014.537-2.134.806-3.36.806H.92zm26.296.372c-1.436 0-2.704-.362-3.802-1.085-1.099-.723-1.955-1.695-2.567-2.914-.613-1.24-.92-2.635-.92-4.185 0-1.611.36-3.048 1.078-4.308.718-1.281 1.732-2.294 3.042-3.038 1.331-.744 2.894-1.116 4.69-1.116 1.817 0 3.359.372 4.626 1.116a7.29 7.29 0 012.947 3.007c.697 1.26 1.046 2.676 1.046 4.246v7.905h-4.816V20.99h-.127a6.136 6.136 0 01-1.141 1.519c-.465.434-1.035.775-1.711 1.023-.655.248-1.437.372-2.345.372zm1.458-4.154c.739 0 1.383-.175 1.933-.527a3.545 3.545 0 001.299-1.519c.295-.64.443-1.353.443-2.139 0-.764-.148-1.456-.443-2.076a3.381 3.381 0 00-1.3-1.457c-.549-.372-1.193-.558-1.932-.558-.76 0-1.426.186-1.997.558a3.382 3.382 0 00-1.299 1.457c-.296.62-.444 1.312-.444 2.076 0 .786.148 1.499.444 2.14.296.64.729 1.146 1.3 1.518.57.352 1.235.527 1.996.527zm12.314 3.782V.904H45.9v12.74h2.154l3.708-6.014h5.482l-4.373 6.634c1.267.516 2.25 1.312 2.947 2.386.718 1.054 1.077 2.294 1.077 3.72v3.162h-4.943V20.37a2.78 2.78 0 00-.444-1.55 2.994 2.994 0 00-1.109-1.116 3.108 3.108 0 00-1.584-.403H45.9v6.23h-4.912zm27.111.372c-1.67 0-3.17-.362-4.5-1.085a8.349 8.349 0 01-3.169-2.976c-.76-1.26-1.14-2.676-1.14-4.246 0-1.592.38-3.007 1.14-4.247a8.348 8.348 0 013.169-2.976c1.33-.744 2.83-1.116 4.5-1.116 1.668 0 3.158.372 4.468 1.116 1.33.723 2.376 1.715 3.137 2.976.781 1.24 1.172 2.655 1.172 4.247 0 1.57-.39 2.986-1.172 4.246-.76 1.26-1.807 2.253-3.138 2.976-1.33.723-2.82 1.085-4.467 1.085zm0-4.185c.781 0 1.457-.186 2.028-.558a3.816 3.816 0 001.33-1.488c.317-.62.476-1.322.476-2.107 0-.765-.159-1.457-.475-2.077A3.816 3.816 0 0070.126 12c-.57-.372-1.247-.558-2.028-.558-.782 0-1.469.186-2.06.558a3.816 3.816 0 00-1.33 1.488c-.318.62-.476 1.312-.476 2.076 0 .786.158 1.488.475 2.108.317.62.76 1.116 1.33 1.488.592.372 1.279.558 2.06.558zm11.694 3.813V.904h4.911v22.628h-4.911zm15.068.372c-1.436 0-2.704-.362-3.802-1.085-1.099-.723-1.955-1.695-2.567-2.914-.613-1.24-.92-2.635-.92-4.185 0-1.611.36-3.048 1.078-4.308a7.88 7.88 0 013.042-3.038c1.331-.744 2.894-1.116 4.69-1.116 1.817 0 3.359.372 4.626 1.116a7.288 7.288 0 012.947 3.007c.697 1.26 1.046 2.676 1.046 4.246v7.905h-4.816V20.99h-.127a6.142 6.142 0 01-1.141 1.519c-.465.434-1.035.775-1.711 1.023-.655.248-1.437.372-2.345.372zm1.458-4.154c.739 0 1.383-.175 1.933-.527a3.545 3.545 0 001.299-1.519c.296-.64.443-1.353.443-2.139 0-.764-.147-1.456-.443-2.076a3.382 3.382 0 00-1.3-1.457c-.549-.372-1.193-.558-1.932-.558-.76 0-1.426.186-1.997.558a3.381 3.381 0 00-1.299 1.457c-.296.62-.443 1.312-.443 2.076 0 .786.147 1.499.443 2.14.296.64.729 1.146 1.3 1.518.57.352 1.235.527 1.996.527z" fill="#EBECF0"/></svg>