<svg width="36" height="44" viewBox="0 0 36 44" fill="none" xmlns="http://www.w3.org/2000/svg">
<path d="M35.287 10.098L18.746 0.206121C18.2864 -0.0687071 17.7138 -0.0687071 17.2541 0.206121L0.71308 10.098C0.271006 10.3624 0 10.8414 0 11.3585V17.0052C0 28.8984 6.83586 39.7611 17.4732 43.9011C17.8119 44.0329 18.1879 44.0331 18.5268 43.9011C29.1384 39.7714 36 28.9323 36 17.0052V11.3585C36.0001 10.8413 35.7292 10.3624 35.287 10.098ZM25.2084 18.7043L16.0638 27.8967C15.494 28.4694 14.5702 28.4694 14.0004 27.8967L10.7911 24.6707C10.2213 24.098 10.2213 23.1692 10.7911 22.5965C11.3609 22.0238 12.2848 22.0238 12.8545 22.5965L15.0321 24.7854L23.145 16.6301C23.7147 16.0574 24.6386 16.0574 25.2084 16.6301C25.7783 17.2029 25.7783 18.1316 25.2084 18.7043Z" fill="white"/>
</svg>
