<svg width="38" height="38" viewBox="0 0 38 38" fill="none" xmlns="http://www.w3.org/2000/svg">
<path d="M32.9333 17.7333H30.4V11.4C30.4 10.3922 29.9996 9.42563 29.287 8.71299C28.5744 8.00036 27.6078 7.6 26.6 7.6H20.2667V5.06667C20.2667 3.7229 19.7329 2.43418 18.7827 1.48399C17.8325 0.533808 16.5438 0 15.2 0C13.8562 0 12.5675 0.533808 11.6173 1.48399C10.6671 2.43418 10.1333 3.7229 10.1333 5.06667V7.6H3.8C2.79218 7.6 1.82563 8.00036 1.11299 8.71299C0.400356 9.42563 0 10.3922 0 11.4V19C0 19.3359 0.133452 19.6581 0.370998 19.8957C0.608544 20.1332 0.930726 20.2667 1.26667 20.2667H5.06667C5.73855 20.2667 6.38291 20.5336 6.858 21.0087C7.3331 21.4838 7.6 22.1281 7.6 22.8C7.6 23.4719 7.3331 24.1162 6.858 24.5913C6.38291 25.0664 5.73855 25.3333 5.06667 25.3333H1.26667C0.930726 25.3333 0.608544 25.4668 0.370998 25.7043C0.133452 25.9419 0 26.2641 0 26.6V34.2C0 35.2078 0.400356 36.1744 1.11299 36.887C1.82563 37.5996 2.79218 38 3.8 38H11.4C11.7359 38 12.0581 37.8665 12.2957 37.629C12.5332 37.3915 12.6667 37.0693 12.6667 36.7333V32.9333C12.6667 32.2615 12.9336 31.6171 13.4087 31.142C13.8838 30.6669 14.5281 30.4 15.2 30.4C15.8719 30.4 16.5162 30.6669 16.9913 31.142C17.4664 31.6171 17.7333 32.2615 17.7333 32.9333V36.7333C17.7333 37.0693 17.8668 37.3915 18.1043 37.629C18.3419 37.8665 18.6641 38 19 38H26.6C27.6078 38 28.5744 37.5996 29.287 36.887C29.9996 36.1744 30.4 35.2078 30.4 34.2V27.8667H32.9333C34.2771 27.8667 35.5658 27.3329 36.516 26.3827C37.4662 25.4325 38 24.1438 38 22.8C38 21.4562 37.4662 20.1675 36.516 19.2173C35.5658 18.2671 34.2771 17.7333 32.9333 17.7333Z" fill="white"/>
</svg>
