<svg width="42" height="42" viewBox="0 0 42 42" fill="none" xmlns="http://www.w3.org/2000/svg">
<path d="M41.4948 17.8197L32.459 26.6263L34.5919 39.0616C34.7475 39.9713 34.1361 40.8348 33.2263 40.9904C32.8651 41.0521 32.4934 40.9934 32.1688 40.8233L20.9997 34.9518L9.8311 40.8226C9.01376 41.251 8.00372 40.9358 7.57525 40.1185C7.40512 39.7939 7.34632 39.4222 7.40817 39.061L9.54075 26.6264L0.504982 17.8197C-0.156055 17.1757 -0.169881 16.1178 0.473982 15.4568C0.730858 15.1932 1.06749 15.0216 1.43163 14.9689L13.9172 13.1549L19.5016 1.84191C19.9897 1.01453 21.0562 0.739458 21.8836 1.22774C22.137 1.37721 22.3483 1.58853 22.4978 1.84191L28.0821 13.1549L40.5677 14.9682C41.4811 15.1003 42.1145 15.948 41.9824 16.8614C41.9297 17.2256 41.7582 17.5623 41.4945 17.819L41.4948 17.8197Z" fill="white"/>
</svg>
