<svg width="65" height="65" viewBox="0 0 65 65" fill="none" xmlns="http://www.w3.org/2000/svg">
<circle cx="32.5" cy="32.5" r="32.5" fill="#2459A8"/>
<path fill-rule="evenodd" clip-rule="evenodd" d="M43.3334 22.0833H20.6667C19.8844 22.0833 19.2501 22.7176 19.2501 23.5V40.5C19.2501 41.2824 19.8844 41.9167 20.6667 41.9167H43.3334C44.1158 41.9167 44.7501 41.2824 44.7501 40.5V23.5C44.7501 22.7176 44.1158 22.0833 43.3334 22.0833ZM20.6667 19.25C18.3195 19.25 16.4167 21.1528 16.4167 23.5V40.5C16.4167 42.8473 18.3195 44.75 20.6667 44.75H43.3334C45.6807 44.75 47.5834 42.8473 47.5834 40.5V23.5C47.5834 21.1528 45.6807 19.25 43.3334 19.25H20.6667Z" fill="white"/>
<path fill-rule="evenodd" clip-rule="evenodd" d="M22.4116 25.4263C22.9125 24.8252 23.8058 24.744 24.4069 25.2449L31.093 30.8167C31.6185 31.2544 32.3815 31.2544 32.9069 30.8167L39.593 25.2449C40.1941 24.744 41.0875 24.8252 41.5882 25.4263C42.0892 26.0273 42.008 26.9206 41.4069 27.4215L34.7207 32.9932C33.1446 34.3068 30.8553 34.3068 29.2791 32.9932L22.593 27.4215C21.992 26.9206 21.9108 26.0273 22.4116 25.4263Z" fill="white"/>
</svg>
