<svg width="65" height="65" viewBox="0 0 65 65" fill="none" xmlns="http://www.w3.org/2000/svg">
<circle cx="32.5" cy="32.5" r="32.5" fill="#2459A8"/>
<path fill-rule="evenodd" clip-rule="evenodd" d="M39.5755 38.0131C41.5599 35.2586 42.9167 32.2311 42.9167 29.1667C42.9167 23.6899 38.4768 19.2501 33 19.2501C27.5232 19.2501 23.0833 23.6899 23.0833 29.1667C23.0833 32.2311 24.4401 35.2586 26.4245 38.0131C28.394 40.7469 30.8156 42.9797 32.5423 44.3938C32.8255 44.6257 33.1745 44.6257 33.4577 44.3938C35.1844 42.9797 37.606 40.7469 39.5755 38.0131ZM35.2531 46.5857C38.914 43.5871 45.75 36.9467 45.75 29.1667C45.75 22.1251 40.0417 16.4167 33 16.4167C25.9584 16.4167 20.25 22.1251 20.25 29.1667C20.25 36.9467 27.0859 43.5871 30.7469 46.5857C32.0744 47.6728 33.9256 47.6728 35.2531 46.5857Z" fill="white"/>
<path fill-rule="evenodd" clip-rule="evenodd" d="M33 26.3333C31.4352 26.3333 30.1667 27.6019 30.1667 29.1667C30.1667 30.7315 31.4352 32 33 32C34.5649 32 35.8334 30.7315 35.8334 29.1667C35.8334 27.6019 34.5649 26.3333 33 26.3333ZM27.3334 29.1667C27.3334 26.037 29.8704 23.5 33 23.5C36.1296 23.5 38.6667 26.037 38.6667 29.1667C38.6667 32.2962 36.1296 34.8333 33 34.8333C29.8704 34.8333 27.3334 32.2962 27.3334 29.1667Z" fill="white"/>
</svg>
