<svg width="36" height="44" fill="none" xmlns="http://www.w3.org/2000/svg"><path d="M35.287 10.098L18.746.206a1.453 1.453 0 00-1.492 0L.714 10.098A1.468 1.468 0 000 11.358v5.647c0 11.893 6.836 22.756 17.473 26.896.339.132.715.132 1.054 0C29.138 39.771 36 28.932 36 17.005V11.36c0-.518-.27-.997-.713-1.261zm-10.079 8.606l-9.144 9.193a1.454 1.454 0 01-2.064 0l-3.209-3.226a1.472 1.472 0 010-2.075 1.454 1.454 0 012.063 0l2.178 2.19 8.113-8.156a1.454 1.454 0 012.063 0c.57.573.57 1.502 0 2.074z" fill="#023AA2"/></svg>