<svg width="53" height="42" fill="none" xmlns="http://www.w3.org/2000/svg"><path d="M9.283 37.023c0-1.928-1.297-3.556-3.094-4.17V17.908l-3.095-1.394v16.34C1.297 33.466 0 35.094 0 37.023c0 2.45 2.082 4.442 4.642 4.442 2.56 0 4.641-1.993 4.641-4.443zm33.8-8.015l-1.543-8.857-15.134 6.817-15.237-6.817-1.543 8.857c.323.197 6.131 6.534 16.78 6.534 10.572 0 16.367-6.345 16.677-6.534z" fill="#023AA2"/><path d="M0 11.848l26.406 11.847L52.71 11.847 26.406 0 0 11.848zm27.953 1.48H24.86v-2.961h3.094v2.961z" fill="#023AA2"/></svg>