<svg width="38" height="38" fill="none" xmlns="http://www.w3.org/2000/svg"><g clip-path="url(#clip0)"><path d="M36.888 3.24a4.072 4.072 0 00-2.95-1.273h-3.539c.014-.637.024-1.292.024-1.967H7.599c0 .674.01 1.33.024 1.967H4.06c-1.111 0-2.19.465-2.95 1.273a4.093 4.093 0 00-1.1 3.05C.645 16.9 6.122 23.56 14.805 24.547L13.123 30.4c-2 0-3.62 1.62-3.62 3.62V38h19.02v-3.98c0-2-1.62-3.62-3.62-3.62l-1.681-5.852c8.664-.997 14.136-7.652 14.768-18.259a4.107 4.107 0 00-1.102-3.05zM3.804 6.06a.28.28 0 01.076-.214c.071-.076.157-.076.18-.076h3.743c.566 7.472 2.214 11.71 3.815 14.103-6.095-2.553-7.548-9.38-7.814-13.812zm22.6 13.799c1.601-2.399 3.245-6.631 3.81-14.093h3.729c.028 0 .109 0 .18.076a.28.28 0 01.076.213c-.27 4.432-1.72 11.239-7.795 13.804z" fill="#fff"/></g><defs><clipPath id="clip0"><path fill="#fff" d="M0 0h38v38H0z"/></clipPath></defs></svg>