<svg width="78" height="78" fill="none" xmlns="http://www.w3.org/2000/svg"><path d="M70.688 39h-4.876a2.438 2.438 0 100 4.875h4.876a2.438 2.438 0 012.437 2.438v26.812H58.5V4.875h2.438a2.437 2.437 0 100-4.875H17.062a2.437 2.437 0 100 4.875H19.5v68.25H4.875V46.312a2.437 2.437 0 012.438-2.437h4.875a2.438 2.438 0 100-4.875H7.311A7.312 7.312 0 000 46.313v29.25A2.437 2.437 0 002.438 78h34.124a2.438 2.438 0 100-4.875h-2.437V60.937a2.438 2.438 0 012.438-2.437h4.874a2.438 2.438 0 012.438 2.438v14.624A2.438 2.438 0 0046.313 78h29.25A2.438 2.438 0 0078 75.562v-29.25A7.312 7.312 0 0070.687 39zm-29.25 14.625h-4.876a7.312 7.312 0 00-7.312 7.313v12.187h-4.875V4.875h29.25v68.25H48.75V60.937a7.312 7.312 0 00-7.313-7.312z" fill="#EBECF0"/><path d="M68.25 48.75h-4.875a2.438 2.438 0 100 4.875h4.875a2.438 2.438 0 100-4.875zm0 9.75h-4.875a2.438 2.438 0 100 4.875h4.875a2.438 2.438 0 100-4.875zm-53.625-9.75H9.75a2.438 2.438 0 100 4.875h4.875a2.438 2.438 0 100-4.875zm0 9.75H9.75a2.438 2.438 0 100 4.875h4.875a2.438 2.438 0 100-4.875zM39 9.75a9.75 9.75 0 100 19.499A9.75 9.75 0 0039 9.75zm0 14.625a4.875 4.875 0 110-9.75 4.875 4.875 0 010 9.75z" fill="#EBECF0"/></svg>