<svg width="65" height="65" fill="none" xmlns="http://www.w3.org/2000/svg"><circle cx="32.5" cy="32.5" r="32.5" fill="#2459A8"/><path fill-rule="evenodd" clip-rule="evenodd" d="M39.575 38.013c1.985-2.754 3.342-5.782 3.342-8.846 0-5.477-4.44-9.917-9.917-9.917-5.477 0-9.917 4.44-9.917 9.917 0 3.064 1.357 6.092 3.341 8.846 1.97 2.734 4.392 4.967 6.118 6.38a.69.69 0 00.916 0c1.726-1.413 4.148-3.646 6.117-6.38zm-4.322 8.573c3.661-2.999 10.497-9.64 10.497-17.42 0-7.04-5.708-12.75-12.75-12.75s-12.75 5.71-12.75 12.75c0 7.78 6.836 14.421 10.497 17.42a3.52 3.52 0 004.506 0z" fill="#fff"/><path fill-rule="evenodd" clip-rule="evenodd" d="M33 26.333A2.833 2.833 0 1033 32a2.833 2.833 0 000-5.667zm-5.667 2.834a5.667 5.667 0 1111.334 0 5.667 5.667 0 01-11.334 0z" fill="#fff"/></svg>