<svg width="65" height="65" fill="none" xmlns="http://www.w3.org/2000/svg"><circle cx="32.5" cy="32.5" r="32.5" fill="#2459A8"/><path fill-rule="evenodd" clip-rule="evenodd" d="M21.584 19.332a4.25 4.25 0 016.405.456l2.576 3.434a4.25 4.25 0 01-.395 5.555l-1.899 1.9c.184.479.79 1.53 2.635 3.375 1.845 1.845 2.897 2.45 3.376 2.635l1.899-1.9a4.25 4.25 0 015.555-.394l3.435 2.576a4.25 4.25 0 01.455 6.405l-1.688 1.688c-1.01 1.01-3.158 1.956-5.332 2.05-3.402.148-8.023-1.362-13.71-7.05-5.688-5.687-7.198-10.308-7.05-13.71.082-1.892.684-3.97 2.059-5.324.984-1 1.112-1.128 1.68-1.695zm-.907 7.143c-.103 2.358.89 6.252 6.222 11.584 5.332 5.332 9.226 6.325 11.584 6.223 2.201-.096 3.382-1.16 3.452-1.224l1.687-1.687c.61-.61.538-1.618-.151-2.135l-3.435-2.576a1.417 1.417 0 00-1.852.131c-.75.752-1.264 1.272-2.267 2.272-2.085 2.076-5.654-1.647-7.014-3.008-1.25-1.25-5.06-4.932-3.01-7.008l2.274-2.273a1.417 1.417 0 00.132-1.852l-2.576-3.434a1.417 1.417 0 00-2.135-.152c-.561.561-1.196 1.196-1.686 1.69-1.008 1.014-1.172 2.209-1.226 3.45z" fill="#fff"/></svg>