<svg width="65" height="65" fill="none" xmlns="http://www.w3.org/2000/svg"><circle cx="32.5" cy="32.5" r="32.5" fill="#2459A8"/><path fill-rule="evenodd" clip-rule="evenodd" d="M43.333 22.083H20.667c-.783 0-1.417.635-1.417 1.417v17c0 .782.634 1.417 1.417 1.417h22.666c.783 0 1.417-.635 1.417-1.417v-17c0-.782-.634-1.417-1.417-1.417zM20.667 19.25a4.25 4.25 0 00-4.25 4.25v17a4.25 4.25 0 004.25 4.25h22.666a4.25 4.25 0 004.25-4.25v-17a4.25 4.25 0 00-4.25-4.25H20.667z" fill="#fff"/><path fill-rule="evenodd" clip-rule="evenodd" d="M22.412 25.426a1.417 1.417 0 011.995-.181l6.686 5.572a1.417 1.417 0 001.814 0l6.686-5.572a1.417 1.417 0 111.814 2.177l-6.686 5.571a4.25 4.25 0 01-5.442 0l-6.686-5.572a1.417 1.417 0 01-.181-1.995z" fill="#fff"/></svg>